HIERARCHY
ROOT Hips
{
  OFFSET 0 0 0
  CHANNELS 6 Xposition Yposition Zposition Zrotation Yrotation Xrotation
  JOINT LeftThigh
  {
    OFFSET 8.409438 0 -5.917753
    CHANNELS 3 Zrotation Yrotation Xrotation
    JOINT LeftLeg
    {
      OFFSET 0 0 -42.358652
      CHANNELS 3 Zrotation Yrotation Xrotation
      JOINT LeftFoot
      {
        OFFSET 0 0 -39.357303
        CHANNELS 3 Zrotation Yrotation Xrotation
      }
    }
  }
  JOINT RightThigh
  {
    OFFSET -8.409438 0 -5.917753
    CHANNELS 3 Zrotation Yrotation Xrotation
    JOINT RightLeg
    {
      OFFSET 0 0 -42.358652
      CHANNELS 3 Zrotation Yrotation Xrotation
      JOINT RightFoot
      {
        OFFSET 0 0 -39.357303
        CHANNELS 3 Zrotation Yrotation Xrotation
      }
    }
  }
  JOINT SpineLow
  {
    OFFSET 0 0 4.719101
    CHANNELS 3 Zrotation Yrotation Xrotation
    JOINT SpineMid
    {
      OFFSET 0 0 12.899191
      CHANNELS 3 Zrotation Yrotation Xrotation
      JOINT Chest
      {
        OFFSET 0 0 12.899191
        CHANNELS 3 Zrotation Yrotation Xrotation
        JOINT LeftShoulder
        {
          OFFSET 7.550562 1.41573 9.438202
          CHANNELS 3 Zrotation Yrotation Xrotation
          JOINT LeftArm
          {
            OFFSET 9.155056 0 4.247191
            CHANNELS 3 Zrotation Yrotation Xrotation
            JOINT LeftForearm
            {
              OFFSET 0 0 25.771955
              CHANNELS 3 Zrotation Yrotation Xrotation
              JOINT LeftHand
              {
                OFFSET 0 0 25.197169
                CHANNELS 3 Zrotation Yrotation Xrotation
              }
            }
          }
        }
        JOINT RightShoulder
        {
          OFFSET -7.550562 1.41573 9.438202
          CHANNELS 3 Zrotation Yrotation Xrotation
          JOINT RightArm
          {
            OFFSET -9.155056 0 4.247191
            CHANNELS 3 Zrotation Yrotation Xrotation
            JOINT RightForearm
            {
              OFFSET 0 0 -25.771955
              CHANNELS 3 Zrotation Yrotation Xrotation
              JOINT RightHand
              {
                OFFSET 0 0 -25.197169
                CHANNELS 3 Zrotation Yrotation Xrotation
              }
            }
          }
        }
        JOINT Neck
        {
          OFFSET 0 0 15.101124
          CHANNELS 3 Zrotation Yrotation Xrotation
          JOINT Head
          {
            OFFSET 0 0 11.325843
            CHANNELS 3 Zrotation Yrotation Xrotation
            End Site
            {
              OFFSET 0 0 14.157303
            }
          }
        }
      }
    }
  }
}
MOTION
Frames: 5
Frame Time: 0.01
0.0  101.685394  0.0  -1.583897  30.309979  -102.778888  16.674786  -22.008181  -1.44527  -16.410071  11.018137  23.158642  2.297094  2.627922  4.233503  -23.170976  17.39965  2.849289  -3.711067  2.516503  20.829391  1.063663  4.500596  -1.834751  -0.323606  0.582111  1.301636  -0.853078  1.607998  3.550672  -0.853078  1.607997  3.550673  -3.490744  20.230215  24.723816  115.451591  72.778991  -155.132854  -35.21573  8.301375  97.353257  60.791856  -4.867653  -22.416264  24.623966  -21.034234  19.14596  135.937944  77.18083  59.545696  -29.799495  -22.592065  -97.833026  66.396842  19.58748  -8.767271  0.013975  -3.811684  -0.434146  0.007766  -2.858775  -0.325402  
0.0  101.685394  0.0  -1.695478  30.613102  -102.853234  16.501914  -22.203366  -1.82404  -16.699133  11.346372  23.400299  2.352916  2.703167  4.344852  -23.76215  17.352332  2.561477  -3.77546  2.591781  21.214531  1.333803  4.684393  -1.765823  -0.306898  0.602082  1.33545  -0.805493  1.66207  3.643316  -0.805493  1.662071  3.643317  -3.666203  19.942379  24.330692  114.807433  72.997932  -155.600009  -35.309011  9.290893  97.358949  61.082158  -4.657803  -22.931714  24.784049  -21.224532  19.177603  136.172344  77.532009  59.805409  -29.575062  -23.068961  -97.904172  67.451695  19.730835  -9.849495  -0.256761  -3.876293  -0.534832  -0.195894  -2.906998  -0.402601  
0.0  101.685394  0.0  -1.838229  30.801397  -102.985268  16.434343  -22.480171  -2.139814  -16.898299  11.729833  23.778445  2.392189  2.717832  4.364201  -23.831267  17.193428  2.455408  -3.693986  2.639022  21.69929  1.242003  4.827806  -1.734945  -0.279686  0.612526  1.379584  -0.729414  1.689582  3.764566  -0.729414  1.689582  3.764565  -3.869542  19.718669  23.933615  114.827934  73.249984  -155.650375  -35.254964  10.794862  97.492079  61.859062  -4.631864  -22.813552  24.753717  -21.284885  19.221295  136.063969  77.8523  59.491997  -29.413372  -23.470199  -97.894436  68.508112  19.662498  -10.622179  -0.464299  -3.983004  -0.657653  -0.352376  -2.98676  -0.496072  
0.0  101.685394  0.0  -1.974357  31.098616  -103.086974  16.239724  -22.75584  -2.646553  -17.194418  12.266106  24.234982  2.608977  2.752942  4.458611  -24.195575  17.116802  2.193058  -3.471227  2.612215  22.279393  1.214325  5.029154  -1.720193  -0.247576  0.618374  1.431404  -0.639986  1.704216  3.90702  -0.639986  1.704216  3.907019  -4.293734  19.499978  23.480547  114.80273  73.505351  -155.532206  -35.303519  12.292848  97.482963  63.182438  -4.636529  -22.235042  24.818283  -21.38385  19.257318  135.922661  78.145681  59.403129  -29.419774  -23.553292  -97.821089  69.298267  19.416394  -10.995462  -0.839484  -4.041453  -0.844113  -0.634944  -3.029945  -0.638383  
0.0  101.685394  0.0  -2.158861  31.273462  -103.239109  16.104534  -23.048725  -3.035876  -17.257764  12.656778  24.796549  2.618072  2.803471  4.423073  -24.20028  16.95264  2.073019  -3.427855  2.631698  22.862774  1.082891  5.171458  -1.724576  -0.217677  0.61832  1.48213  -0.556967  1.702709  4.046473  -0.556967  1.702709  4.046473  -4.564919  19.320807  23.120714  114.855721  73.863351  -155.544078  -35.266905  14.02006  97.631985  64.944862  -4.579346  -21.413947  24.636829  -21.331033  19.273238  135.426665  78.402056  58.672988  -29.435087  -23.440621  -97.710041  69.722926  19.173749  -11.010974  -1.091074  -4.148797  -1.008001  -0.824804  -3.109821  -0.763091  
